# xmcd CD database file
#
# Track frame offsets:
#	150
#	20181
#	38999
#	74021
#	90748
#	102163
#	124789
#	143669
#	167664
#	190666
#
# Disc length: 2928 seconds
#
# Revision: 0
# Processed by: cddbd v1.5.1PL0 Copyright (c) Steve Scherf et al.
# Submitted via: CDex 1.51
#
DISCID=8a0b6e0a
DTITLE=Jean-philippe Viret Trio - Autrement Dit
DYEAR=2004
DGENRE=Jazz
TTITLE0=I'll Remeber April
TTITLE1=Hayaku
TTITLE2=A Nightingale Sang In Berkeley Square
TTITLE3=A Weaver Of Dreams
TTITLE4=I Got Rhythm
TTITLE5=The Days Of Wine And Roses
TTITLE6=Changements
TTITLE7=All The Things You Are
TTITLE8=I Didn't Know What Time It Was
TTITLE9=Le Cerf Est Dans La Fac
EXTD=YEAR: 2004
EXTT0=
EXTT1=
EXTT2=
EXTT3=
EXTT4=
EXTT5=
EXTT6=
EXTT7=
EXTT8=
EXTT9=
PLAYORDER=
